{
    "asset": {
        "version": "2.0",
        "generator": "Open Asset Import Library (assimp v5.2.cf7d3637)"
    },
    "extensionsUsed": [
        "KHR_materials_volume",
        "FB_ngon_encoding"
    ],
    "accessors": [
        {
            "bufferView": 0,
            "byteOffset": 0,
            "componentType": 5126,
            "count": 300147,
            "type": "VEC3",
            "max": [
                1.5513508319854737,
                0.3641509413719177,
                0.8783780932426453
            ],
            "min": [
                -0.8476002812385559,
                -0.5422027707099915,
                -0.11830271780490875
            ]
        },
        {
            "bufferView": 1,
            "byteOffset": 0,
            "componentType": 5126,
            "count": 300147,
            "type": "VEC2",
            "max": [
                0.9997453689575195,
                0.9998626112937927
            ],
            "min": [
                0.000244140625,
                0.02172863483428955
            ]
        },
        {
            "bufferView": 2,
            "byteOffset": 0,
            "componentType": 5125,
            "count": 300147,
            "type": "SCALAR",
            "max": [
                300146
            ],
            "min": [
                0
            ]
        }
    ],
    "buffers": [
        {
            "byteLength": 7203528,
            "uri": "result.bin"
        }
    ],
    "bufferViews": [
        {
            "buffer": 0,
            "byteOffset": 0,
            "byteLength": 3601764,
            "target": 34962
        },
        {
            "buffer": 0,
            "byteOffset": 3601764,
            "byteLength": 2401176,
            "target": 34962
        },
        {
            "buffer": 0,
            "byteOffset": 6002940,
            "byteLength": 1200588,
            "target": 34963
        }
    ],
    "images": [
        {
            "uri": "RealityCapture_aphaia_2_13.12.23_light_u0_v0_diffuse.jpeg"
        }
    ],
    "materials": [
        {
            "name": "default_tex0",
            "pbrMetallicRoughness": {
                "baseColorTexture": {
                    "index": 0
                },
                "metallicFactor": 0.0
            }
        },
        {
            "name": "material"
        }
    ],
    "meshes": [
        {
            "name": "Mesh_0_Part_0",
            "primitives": [
                {
                    "mode": 4,
                    "material": 0,
                    "indices": 2,
                    "attributes": {
                        "POSITION": 0,
                        "TEXCOORD_0": 1
                    }
                }
            ]
        }
    ],
    "nodes": [
        {
            "name": "nodes[0]",
            "mesh": 0
        }
    ],
    "samplers": [
        {
            "wrapS": 33071,
            "wrapT": 33071,
            "magFilter": 9729,
            "minFilter": 9729
        }
    ],
    "scenes": [
        {
            "nodes": [
                0
            ]
        }
    ],
    "textures": [
        {
            "source": 0,
            "sampler": 0
        }
    ],
    "scene": 0
}