{
  "accessors": [
    {
      "bufferView": 2,
      "componentType": 5126,
      "count": 118,
      "max": [
        0.37911224365234375,
        9.802291870117188,
        1.6362895965576172
      ],
      "min": [
        -0.37911415100097656,
        0.0,
        -0.32832151651382446
      ],
      "type": "VEC3"
    },
    {
      "bufferView": 2,
      "byteOffset": 1416,
      "componentType": 5126,
      "count": 118,
      "max": [
        1.0,
        1.0,
        1.0
      ],
      "min": [
        -1.0,
        -1.0,
        -1.0
      ],
      "type": "VEC3"
    },
    {
      "bufferView": 1,
      "componentType": 5126,
      "count": 118,
      "max": [
        0.7264738082885742,
        0.22756651043891907
      ],
      "min": [
        0.6718465089797974,
        0.13126224279403687
      ],
      "type": "VEC2"
    },
    {
      "bufferView": 1,
      "byteOffset": 944,
      "componentType": 5126,
      "count": 118,
      "max": [
        0.7264738082885742,
        0.22756651043891907
      ],
      "min": [
        0.6718465089797974,
        0.13126224279403687
      ],
      "type": "VEC2"
    },
    {
      "bufferView": 1,
      "byteOffset": 1888,
      "componentType": 5126,
      "count": 118,
      "max": [
        0.7264738082885742,
        0.22756651043891907
      ],
      "min": [
        0.6718465089797974,
        0.13126224279403687
      ],
      "type": "VEC2"
    },
    {
      "bufferView": 1,
      "byteOffset": 2832,
      "componentType": 5126,
      "count": 118,
      "max": [
        0.7264738082885742,
        0.22756651043891907
      ],
      "min": [
        0.6718465089797974,
        0.13126224279403687
      ],
      "type": "VEC2"
    },
    {
      "bufferView": 1,
      "byteOffset": 3776,
      "componentType": 5126,
      "count": 118,
      "max": [
        0.7264738082885742,
        0.22756651043891907
      ],
      "min": [
        0.6718465089797974,
        0.13126224279403687
      ],
      "type": "VEC2"
    },
    {
      "bufferView": 0,
      "componentType": 5125,
      "count": 288,
      "type": "SCALAR"
    },
    {
      "bufferView": 2,
      "byteOffset": 2832,
      "componentType": 5126,
      "count": 223,
      "max": [
        0.42453575134277344,
        9.644784927368164,
        1.6820971965789795
      ],
      "min": [
        -1.6252326965332031,
        0.0,
        -1.3916726112365723
      ],
      "type": "VEC3"
    },
    {
      "bufferView": 2,
      "byteOffset": 5508,
      "componentType": 5126,
      "count": 223,
      "max": [
        0.9999517202377319,
        0.9999951124191284,
        0.9999895095825195
      ],
      "min": [
        -0.9999542236328125,
        -0.9999955892562866,
        -0.9999246597290039
      ],
      "type": "VEC3"
    },
    {
      "bufferView": 1,
      "byteOffset": 4720,
      "componentType": 5126,
      "count": 223,
      "max": [
        0.7264738082885742,
        0.22756651043891907
      ],
      "min": [
        0.6718465089797974,
        0.13126224279403687
      ],
      "type": "VEC2"
    },
    {
      "bufferView": 1,
      "byteOffset": 6504,
      "componentType": 5126,
      "count": 223,
      "max": [
        0.7264738082885742,
        0.22756651043891907
      ],
      "min": [
        0.6718465089797974,
        0.13126224279403687
      ],
      "type": "VEC2"
    },
    {
      "bufferView": 1,
      "byteOffset": 8288,
      "componentType": 5126,
      "count": 223,
      "max": [
        0.7264738082885742,
        0.22756651043891907
      ],
      "min": [
        0.6718465089797974,
        0.13126224279403687
      ],
      "type": "VEC2"
    },
    {
      "bufferView": 1,
      "byteOffset": 10072,
      "componentType": 5126,
      "count": 223,
      "max": [
        0.7264738082885742,
        0.22756651043891907
      ],
      "min": [
        0.6718465089797974,
        0.13126224279403687
      ],
      "type": "VEC2"
    },
    {
      "bufferView": 1,
      "byteOffset": 11856,
      "componentType": 5126,
      "count": 223,
      "max": [
        0.7264738082885742,
        0.22756651043891907
      ],
      "min": [
        0.6718465089797974,
        0.13126224279403687
      ],
      "type": "VEC2"
    },
    {
      "bufferView": 0,
      "byteOffset": 1152,
      "componentType": 5125,
      "count": 564,
      "type": "SCALAR"
    }
  ],
  "asset": {
    "extras": {
      "author": "Arthur J (https://sketchfab.com/arthurjrm)",
      "license": "CC-BY-SA-4.0 (http://creativecommons.org/licenses/by-sa/4.0/)",
      "source": "https://sketchfab.com/3d-models/street-lamps-8737ae7ef244436da60495e9b175eee4",
      "title": "Street Lamps"
    },
    "generator": "Sketchfab-12.67.0",
    "version": "2.0"
  },
  "bufferViews": [
    {
      "buffer": 0,
      "byteLength": 3408,
      "name": "floatBufferViews",
      "target": 34963
    },
    {
      "buffer": 0,
      "byteLength": 13640,
      "byteOffset": 3408,
      "byteStride": 8,
      "name": "floatBufferViews",
      "target": 34962
    },
    {
      "buffer": 0,
      "byteLength": 8184,
      "byteOffset": 17048,
      "byteStride": 12,
      "name": "floatBufferViews",
      "target": 34962
    }
  ],
  "buffers": [
    {
      "byteLength": 25232,
      "uri": "scene.bin"
    }
  ],
  "images": [
    {
      "uri": "textures/Atlas_Cidade_Fase1_baseColor.png"
    },
    {
      "uri": "textures/Atlas_Cidade_Fase1_metallicRoughness.png"
    },
    {
      "uri": "textures/Atlas_Cidade_Fase1_emissive.png"
    }
  ],
  "materials": [
    {
      "doubleSided": true,
      "emissiveFactor": [
        1.0,
        1.0,
        1.0
      ],
      "emissiveTexture": {
        "index": 2
      },
      "name": "Atlas_Cidade_Fase1",
      "pbrMetallicRoughness": {
        "baseColorTexture": {
          "index": 0
        },
        "metallicRoughnessTexture": {
          "index": 1
        }
      }
    }
  ],
  "meshes": [
    {
      "name": "Object_0",
      "primitives": [
        {
          "attributes": {
            "NORMAL": 1,
            "POSITION": 0,
            "TEXCOORD_0": 2,
            "TEXCOORD_1": 3,
            "TEXCOORD_2": 4,
            "TEXCOORD_3": 5,
            "TEXCOORD_4": 6
          },
          "indices": 7,
          "material": 0,
          "mode": 4
        }
      ]
    },
    {
      "name": "Object_1",
      "primitives": [
        {
          "attributes": {
            "NORMAL": 9,
            "POSITION": 8,
            "TEXCOORD_0": 10,
            "TEXCOORD_1": 11,
            "TEXCOORD_2": 12,
            "TEXCOORD_3": 13,
            "TEXCOORD_4": 14
          },
          "indices": 15,
          "material": 0,
          "mode": 4
        }
      ]
    }
  ],
  "nodes": [
    {
      "children": [
        1
      ],
      "matrix": [
        1.0,
        0.0,
        0.0,
        0.0,
        0.0,
        2.220446049250313e-16,
        -1.0,
        0.0,
        0.0,
        1.0,
        2.220446049250313e-16,
        0.0,
        0.0,
        0.0,
        0.0,
        1.0
      ],
      "name": "Sketchfab_model"
    },
    {
      "children": [
        2
      ],
      "name": "root"
    },
    {
      "children": [
        3,
        5
      ],
      "matrix": [
        1.0,
        0.0,
        0.0,
        0.0,
        0.0,
        2.220446049250313e-16,
        1.0,
        0.0,
        0.0,
        -1.0,
        2.220446049250313e-16,
        0.0,
        0.0,
        0.0,
        0.0,
        1.0
      ],
      "name": "GLTF_SceneRootNode"
    },
    {
      "children": [
        4
      ],
      "matrix": [
        1.0,
        0.0,
        0.0,
        0.0,
        0.0,
        1.0,
        0.0,
        0.0,
        0.0,
        0.0,
        1.0,
        0.0,
        -2.0523579120635986,
        0.0,
        0.0,
        1.0
      ],
      "name": "Poste_Reto_0"
    },
    {
      "mesh": 0,
      "name": "Object_4"
    },
    {
      "children": [
        6
      ],
      "matrix": [
        1.0,
        0.0,
        0.0,
        0.0,
        0.0,
        1.0,
        0.0,
        0.0,
        0.0,
        0.0,
        1.0,
        0.0,
        1.621317744255066,
        0.0,
        0.0,
        1.0
      ],
      "name": "Poste_Torto_1"
    },
    {
      "mesh": 1,
      "name": "Object_6"
    }
  ],
  "samplers": [
    {
      "magFilter": 9729,
      "minFilter": 9987,
      "wrapS": 10497,
      "wrapT": 10497
    }
  ],
  "scene": 0,
  "scenes": [
    {
      "name": "Sketchfab_Scene",
      "nodes": [
        0
      ]
    }
  ],
  "textures": [
    {
      "sampler": 0,
      "source": 0
    },
    {
      "sampler": 0,
      "source": 1
    },
    {
      "sampler": 0,
      "source": 2
    }
  ]
}
