{
  "asset": {
    "generator": "Khronos glTF Blender I/O v3.6.28",
    "version": "2.0"
  },
  "scene": 0,
  "scenes": [
    {
      "name": "Scene",
      "nodes": [
        0
      ]
    }
  ],
  "nodes": [
    {
      "mesh": 0,
      "name": "SapinHiver",
      "scale": [
        0.6314398646354675,
        0.6314398646354675,
        0.6314398646354675
      ],
      "translation": [
        -0.16239501535892487,
        1.675195336341858,
        0.10679817199707031
      ]
    }
  ],
  "materials": [
    {
      "doubleSided": true,
      "name": "Material.008",
      "pbrMetallicRoughness": {}
    },
    {
      "doubleSided": true,
      "name": "Material.009",
      "pbrMetallicRoughness": {}
    },
    {
      "doubleSided": true,
      "name": "snow",
      "pbrMetallicRoughness": {}
    }
  ],
  "meshes": [
    {
      "name": "Cylinder.008",
      "primitives": [
        {
          "attributes": {
            "POSITION": 0,
            "NORMAL": 1
          },
          "indices": 2,
          "material": 0
        },
        {
          "attributes": {
            "POSITION": 3,
            "NORMAL": 4
          },
          "indices": 5,
          "material": 1
        },
        {
          "attributes": {
            "POSITION": 6,
            "NORMAL": 7
          },
          "indices": 8,
          "material": 2
        }
      ]
    }
  ],
  "accessors": [
    {
      "bufferView": 0,
      "componentType": 5126,
      "count": 48,
      "max": [
        0.35331302881240845,
        -0.8930003643035889,
        0.3533130884170532
      ],
      "min": [
        -0.3533130884170532,
        -2.893000364303589,
        -0.3533130884170532
      ],
      "type": "VEC3"
    },
    {
      "bufferView": 1,
      "componentType": 5126,
      "count": 48,
      "type": "VEC3"
    },
    {
      "bufferView": 2,
      "componentType": 5123,
      "count": 84,
      "type": "SCALAR"
    },
    {
      "bufferView": 3,
      "componentType": 5126,
      "count": 400,
      "max": [
        1.6002932786941528,
        4.999178886413574,
        1.6002932786941528
      ],
      "min": [
        -1.6002932786941528,
        -1.051673412322998,
        -1.6002932786941528
      ],
      "type": "VEC3"
    },
    {
      "bufferView": 4,
      "componentType": 5126,
      "count": 400,
      "type": "VEC3"
    },
    {
      "bufferView": 5,
      "componentType": 5123,
      "count": 612,
      "type": "SCALAR"
    },
    {
      "bufferView": 6,
      "componentType": 5126,
      "count": 400,
      "max": [
        1.6002932786941528,
        5.057044506072998,
        1.6002932786941528
      ],
      "min": [
        -1.6002932786941528,
        -0.9938077926635742,
        -1.6002932786941528
      ],
      "type": "VEC3"
    },
    {
      "bufferView": 7,
      "componentType": 5126,
      "count": 400,
      "type": "VEC3"
    },
    {
      "bufferView": 8,
      "componentType": 5123,
      "count": 612,
      "type": "SCALAR"
    }
  ],
  "bufferViews": [
    {
      "buffer": 0,
      "byteLength": 576,
      "byteOffset": 0,
      "target": 34962
    },
    {
      "buffer": 0,
      "byteLength": 576,
      "byteOffset": 576,
      "target": 34962
    },
    {
      "buffer": 0,
      "byteLength": 168,
      "byteOffset": 1152,
      "target": 34963
    },
    {
      "buffer": 0,
      "byteLength": 4800,
      "byteOffset": 1320,
      "target": 34962
    },
    {
      "buffer": 0,
      "byteLength": 4800,
      "byteOffset": 6120,
      "target": 34962
    },
    {
      "buffer": 0,
      "byteLength": 1224,
      "byteOffset": 10920,
      "target": 34963
    },
    {
      "buffer": 0,
      "byteLength": 4800,
      "byteOffset": 12144,
      "target": 34962
    },
    {
      "buffer": 0,
      "byteLength": 4800,
      "byteOffset": 16944,
      "target": 34962
    },
    {
      "buffer": 0,
      "byteLength": 1224,
      "byteOffset": 21744,
      "target": 34963
    }
  ],
  "buffers": [
    {
      "uri": "Winter_tree_data.bin",
      "byteLength": 22968
    }
  ]
}